<?xml version="1.0" encoding="UTF-8"?>
<svg width="225px" height="350px" viewBox="0 0 225 350" version="1.1" xmlns="http://www.w3.org/2000/svg" xmlns:xlink="http://www.w3.org/1999/xlink">
    <!-- Generator: Sketch 55.2 (78181) - https://sketchapp.com -->
    <title>midsummer_mask</title>
    <desc>Created with Sketch.</desc>
    <g id="Midsummer" stroke="none" stroke-width="1" fill="none" fill-rule="evenodd">
        <g id="mask" transform="translate(-50.000000, -50.000000)" fill="#000000">
            <g id="midsummer_mask" transform="translate(50.000000, 50.000000)">
                <path d="M224.928136,27.4980294 L225,27.5082332 L225,337.506275 C225,344.406369 219.410136,350 212.50183,350 L12.4981705,350 C5.59562152,350 0,344.400673 0,337.502082 L0,27.4 C0,27.4 0.0294488725,27.4009638 0.0864153006,27.4028143 L0.0657012294,27.3642551 L5.36307788,23.5154856 C5.66891549,23.2932816 6.05046476,23.0418324 6.47555885,22.7798154 C7.23758325,22.3101235 8.05468555,21.8625 8.90970383,21.446463 C10.3287006,20.7560038 11.7791683,20.1854079 13.2503882,19.7406945 L12.231785,11.3579937 L18.8901295,12.2533183 C21.0225643,8.71931884 24.0397529,5.64085765 27.8547284,3.10117919 L32.5963593,0.100731298 C32.5988553,0.0343802428 32.6,0 32.6,0 L192.491211,0 L192.555629,0.15533249 L197.210973,3.10117919 C201.025948,5.64085765 204.043137,8.71931884 206.175572,12.2533183 L212.833916,11.3579937 L211.815313,19.7406945 C213.286533,20.1854079 214.737001,20.7560038 216.155997,21.446463 C217.011016,21.8625 217.828118,22.3101235 218.590142,22.7798154 C219.015236,23.0418324 219.396786,23.2932816 219.702623,23.5154856 L225,27.3642551 L224.928136,27.4980294 Z" id="Path" style="mix-blend-mode: multiply;"></path>
            </g>
        </g>
    </g>
</svg>