<?xml version="1.0" encoding="UTF-8"?>
<svg width="225px" height="350px" viewBox="0 0 225 350" version="1.1" xmlns="http://www.w3.org/2000/svg" xmlns:xlink="http://www.w3.org/1999/xlink">
    <!-- Generator: Sketch 53.2 (72643) - https://sketchapp.com -->
    <title>mothers_day_mask</title>
    <desc>Created with Sketch.</desc>
    <g id="Mother's-day" stroke="none" stroke-width="1" fill="none" fill-rule="evenodd">
        <g id="Mothers_day_mask" transform="translate(-50.000000, -50.000000)" fill="#000000">
            <g id="mothers_day_mask" transform="translate(50.000000, 50.000000)">
                <path d="M42.5,0 L212.508267,0 C219.407261,0 225,5.60382598 225,12.5082332 L225,337.491767 C225,344.399873 219.410136,350 212.50183,350 L12.4981705,350 C5.59562152,350 8.52651283e-14,344.410241 8.52651283e-14,337.506081 L-1.42193007e-14,16.7649373 L9.60227273,16.7649373 L9.60227273,9.37857369 L19.6022727,9.37857369 C21.9989013,9.37857369 24.3713051,9.59300335 26.6982871,10.0181873 C29.7768313,6.48509094 33.4245138,3.47358432 37.4927404,1.1202423 C39.161827,0.373414099 40.8309135,-3.12533225e-14 42.5,0 L42.5,0 Z" id="Path"></path>
            </g>
        </g>
    </g>
</svg>