<?xml version="1.0" encoding="UTF-8"?>
<svg width="225px" height="350px" viewBox="0 0 225 350" version="1.1" xmlns="http://www.w3.org/2000/svg" xmlns:xlink="http://www.w3.org/1999/xlink">
    <!-- Generator: Sketch 48.2 (47327) - http://www.bohemiancoding.com/sketch -->
    <title>st.patricks_mask</title>
    <desc>Created with Sketch.</desc>
    <defs></defs>
    <g id="mask" stroke="none" stroke-width="1" fill="none" fill-rule="evenodd" transform="translate(-50.000000, -50.000000)">
        <g id="st.patricks_mask" transform="translate(50.000000, 50.000000)" fill="#000000">
            <path d="M0.258913494,51.1365318 C0.210335719,49.0246662 0.578769873,46.9494416 1.31961809,44.9646349 C1.87157508,43.1113928 2.60834826,41.7122572 3.55151183,40.7380679 C3.68691501,40.543267 3.82619896,40.3499534 3.96930915,40.1581931 C0.761213668,36.010135 -0.603735306,31.0639959 0.471961214,26.0032417 C1.76965326,19.8980806 6.2665243,15.3879386 12.4763104,13.1483879 C14.5047944,6.88810098 18.8489486,2.25687435 24.8886996,0.750995287 C30.3469585,-0.609901507 35.7380628,0.910296106 40.1934935,4.54128235 C43.6700697,1.60871764 47.7703221,0.00236095032 52.0703219,0.11944841 C52.0240527,0.0406094234 51.9997411,-1.2874591e-14 52,-1.28785871e-14 C52.0086047,-1.27457723e-14 212.50667,2.89910265e-14 212.50667,2.89910265e-14 C219.406546,3.07856536e-14 225,5.60382598 225,12.5082332 L225,337.491767 C225,344.399873 219.410136,350 212.50183,350 L12.4981705,350 C5.59562152,350 0,344.411395 0,337.491057 L0,58.0056773 C0,55.4394958 0.0833031086,53.1538374 0.258913494,51.1365318 Z" id="Card"></path>
        </g>
    </g>
</svg>