<svg xmlns="http://www.w3.org/2000/svg" width="225" height="350" viewBox="0 0 225 350">
  <path fill-rule="evenodd" d="M0,43.3129723 L25.9032652,27.1217735 L26,27 L26,27 C26.4529769,26.4234839 26.9172852,25.7647732 27.3881638,25.040841 L27.3894737,10.1355263 C27.3894737,4.72441959 31.6298234,0.30369961 36.968892,0.0149972856 L37.2460145,0.00376542307 L37.525,0 C38.1104734,0 38.5786715,0.0481587879 38.9477217,0.14080709 L39,0 L39,0 L212.507199,0 C219.406782,0 225,5.60382598 225,12.5082332 L225,337.491767 C225,344.399873 219.410136,350 212.50183,350 L12.4981705,350 C5.59562152,350 0,344.398212 0,337.492214 L0,43.3129723 Z"/>
</svg>
