<?xml version="1.0" encoding="UTF-8"?>
<svg width="226px" height="350px" viewBox="0 0 226 350" version="1.1" xmlns="http://www.w3.org/2000/svg" xmlns:xlink="http://www.w3.org/1999/xlink">
    <!-- Generator: Sketch 48.2 (47327) - http://www.bohemiancoding.com/sketch -->
    <title>arbor_pine</title>
    <desc>Created with Sketch.</desc>
    <defs></defs>
    <g id="pine-copy" stroke="none" stroke-width="1" fill="none" fill-rule="evenodd" transform="translate(-49.000000, -50.000000)">
        <g id="arbor_pine" transform="translate(49.000000, 50.000000)" fill="#000000">
            <path d="M1.0671509,35.4343551 C1.17585409,33.9544493 1.41423146,32.9634042 1.7654449,32.4610528 C2.27409343,30.7594479 2.95012519,29.1455039 3.77413118,27.6375086 C4.35446136,26.575459 4.98568718,25.6070732 5.54087028,24.9135955 C6.11957301,24.1799983 6.78547288,23.5262243 7.52003503,22.9650267 C8.28332163,20.5741889 9.38901394,18.3316822 10.8070836,16.2694277 C11.7636972,14.8782542 12.8310987,13.6182657 13.9842154,12.50306 C14.6973119,11.813408 15.4011351,11.2180665 16.0504891,10.7506101 C16.3197788,10.5566876 16.5970562,10.3753587 16.8815359,10.2070117 C18.0895457,8.44888062 19.5171685,6.81640759 21.1423712,5.30972667 C22.1048622,4.41742758 23.1032368,3.6027686 24.1195552,2.87321805 C24.7326613,2.43310812 25.3015691,2.05915477 25.8372991,1.74265084 C27.7108166,0.646490225 29.8374313,0.137756057 31.9491768,0.23340499 C31.9827938,0.0800841318 32,0 32,0 L213.495049,0 C220.401343,0 226,5.60382598 226,12.5082332 L226,337.491767 C226,344.399873 220.410136,350 213.50183,350 L13.4981705,350 C6.59562152,350 1,344.410337 1,337.508318 L1,48.0497463 C0.995778589,47.8731737 0.995788416,47.696757 1,47.5206368 L1,43.5939266 C0.576277973,40.8548991 0.604377228,38.1168396 1.0671509,35.4343551 Z" id="Card"></path>
        </g>
    </g>
</svg>