<?xml version="1.0" encoding="UTF-8"?>
<svg width="225px" height="351px" viewBox="0 0 225 351" version="1.1" xmlns="http://www.w3.org/2000/svg" xmlns:xlink="http://www.w3.org/1999/xlink">
    <!-- Generator: Sketch 48.2 (47327) - http://www.bohemiancoding.com/sketch -->
    <title>arbor_oak_mask_small_locked2</title>
    <desc>Created with Sketch.</desc>
    <defs></defs>
    <g id="oak-copy" stroke="none" stroke-width="1" fill="none" fill-rule="evenodd" transform="translate(-50.000000, -49.000000)">
        <g id="arbor_oak_mask" transform="translate(49.000000, 49.000000)" fill="#000000">
            <path d="M1.03631304,26.5085859 C1.01857173,25.7760821 1.0080936,25.2476137 1,25 C0.993406434,24.7982778 0.929343337,24.6345311 0.995340041,24.4583741 C3.59277359,17.5253594 11.1300876,12.8286025 21.3968783,10.5768799 C22.1135026,7.05492658 24.2510503,3.98198864 27.7559082,2.07024793 C28.5243272,1.65111033 29.2460454,1.28919827 30,1 C30.1790834,0.931308052 30.8179613,1.00678444 31,1.00891885 L31,1 L38.9638461,1 C38.9758542,0.999867599 38.9879052,0.999866878 39,1 L213.505234,1 C220.405903,1 226,6.60382598 226,13.5082332 L226,338.491767 C226,345.399873 220.410136,351 213.50183,351 L13.4981705,351 C6.59562152,351 1,345.396359 1,338.492137 L1,27.5078627 C1,27.1651286 1.01226059,26.8319423 1.03631304,26.5085859 Z" id="Card"></path>
        </g>
    </g>
</svg>